<svg xmlns="http://www.w3.org/2000/svg" style="display:none">
  <!-- HP Heart -->
  <symbol id="icon-hp" viewBox="0 0 24 24">
    <path d="M12 21.35l-1.45-1.32C5.4 15.36 2 12.28 2 8.5 2 5.42 4.42 3 7.5 3c1.74 0 3.41.81 4.5 2.09C13.09 3.81 14.76 3 16.5 3 19.58 3 22 5.42 22 8.5c0 3.78-3.4 6.86-8.55 11.54L12 21.35z" fill="currentColor"/>
  </symbol>

  <!-- AC Shield -->
  <symbol id="icon-ac" viewBox="0 0 24 24">
    <path d="M12 2L4 5v6.09c0 5.05 3.41 9.76 8 10.91 4.59-1.15 8-5.86 8-10.91V5l-8-3z" fill="none" stroke="currentColor" stroke-width="2"/>
    <path d="M12 2L4 5v6.09c0 5.05 3.41 9.76 8 10.91 4.59-1.15 8-5.86 8-10.91V5l-8-3z" fill="currentColor" opacity="0.15"/>
  </symbol>

  <!-- XP Star -->
  <symbol id="icon-xp" viewBox="0 0 24 24">
    <path d="M12 2l3.09 6.26L22 9.27l-5 4.87L18.18 22 12 18.27 5.82 22 7 14.14l-5-4.87 6.91-1.01L12 2z" fill="currentColor"/>
  </symbol>

  <!-- Gold Coin -->
  <symbol id="icon-gold" viewBox="0 0 24 24">
    <circle cx="12" cy="12" r="9" fill="none" stroke="currentColor" stroke-width="2"/>
    <circle cx="12" cy="12" r="9" fill="currentColor" opacity="0.15"/>
    <text x="12" y="16.5" text-anchor="middle" font-size="12" font-weight="bold" font-family="serif" fill="currentColor">G</text>
  </symbol>

  <!-- Spell Book -->
  <symbol id="icon-spell" viewBox="0 0 24 24">
    <path d="M6 2C4.9 2 4 2.9 4 4v16c0 1.1.9 2 2 2h12c1.1 0 2-.9 2-2V8l-6-6H6z" fill="none" stroke="currentColor" stroke-width="1.5"/>
    <path d="M14 2v6h6" fill="none" stroke="currentColor" stroke-width="1.5"/>
    <path d="M9 13h6M9 17h4" stroke="currentColor" stroke-width="1.5" stroke-linecap="round"/>
    <circle cx="12" cy="10" r="1" fill="currentColor"/>
  </symbol>

  <!-- Sword (Game/Quest) -->
  <symbol id="icon-sword" viewBox="0 0 24 24">
    <path d="M19 2l-8.4 8.4M14.5 5.5L18 2l4 4-3.5 3.5" fill="none" stroke="currentColor" stroke-width="1.8" stroke-linecap="round" stroke-linejoin="round"/>
    <path d="M10.6 12.4l-6.3 6.3c-.4.4-.4 1 0 1.4l.6.6c.4.4 1 .4 1.4 0l6.3-6.3" fill="none" stroke="currentColor" stroke-width="1.8" stroke-linecap="round" stroke-linejoin="round"/>
    <path d="M8 16l-3 3M9.5 14.5l1 1" fill="none" stroke="currentColor" stroke-width="1.5" stroke-linecap="round"/>
  </symbol>

  <!-- Scroll (DM/Narrator) -->
  <symbol id="icon-scroll" viewBox="0 0 24 24">
    <path d="M19 3H7c-1.1 0-2 .9-2 2v2c-1.1 0-2 .9-2 2v8c0 1.1.9 2 2 2h1c0 1.1.9 2 2 2h10c1.1 0 2-.9 2-2V5c0-1.1-.9-2-2-2z" fill="none" stroke="currentColor" stroke-width="1.5"/>
    <path d="M9 8h8M9 12h8M9 16h5" stroke="currentColor" stroke-width="1.5" stroke-linecap="round"/>
  </symbol>

  <!-- D20 Dice -->
  <symbol id="icon-d20" viewBox="0 0 24 24">
    <polygon points="12,2 22,8 22,16 12,22 2,16 2,8" fill="none" stroke="currentColor" stroke-width="1.5"/>
    <line x1="12" y1="2" x2="12" y2="22" stroke="currentColor" stroke-width="0.8" opacity="0.4"/>
    <line x1="2" y1="8" x2="22" y2="16" stroke="currentColor" stroke-width="0.8" opacity="0.4"/>
    <line x1="22" y1="8" x2="2" y2="16" stroke="currentColor" stroke-width="0.8" opacity="0.4"/>
  </symbol>

  <!-- Campfire (Session) -->
  <symbol id="icon-campfire" viewBox="0 0 24 24">
    <path d="M12 3c-2 3-5 5-5 9a5 5 0 0 0 10 0c0-4-3-6-5-9z" fill="none" stroke="currentColor" stroke-width="1.5"/>
    <path d="M12 8c-1 1.5-2.5 2.5-2.5 4.5a2.5 2.5 0 0 0 5 0c0-2-1.5-3-2.5-4.5z" fill="currentColor" opacity="0.3"/>
    <path d="M6 20c2-1 4-1.5 6-1.5s4 .5 6 1.5" stroke="currentColor" stroke-width="1.5" stroke-linecap="round"/>
  </symbol>

  <!-- Bag (Inventory) -->
  <symbol id="icon-bag" viewBox="0 0 24 24">
    <path d="M8 6V4a4 4 0 0 1 8 0v2" fill="none" stroke="currentColor" stroke-width="1.5"/>
    <rect x="4" y="6" width="16" height="14" rx="2" fill="none" stroke="currentColor" stroke-width="1.5"/>
    <path d="M4 10h16" stroke="currentColor" stroke-width="1" opacity="0.4"/>
  </symbol>

  <!-- Crown (Level Up) -->
  <symbol id="icon-crown" viewBox="0 0 24 24">
    <path d="M5 16l-2-8 5 4 4-6 4 6 5-4-2 8H5z" fill="currentColor" opacity="0.2" stroke="currentColor" stroke-width="1.5" stroke-linejoin="round"/>
    <rect x="5" y="16" width="14" height="3" rx="1" fill="none" stroke="currentColor" stroke-width="1.5"/>
  </symbol>

  <!-- Quill (Writing/Actions) -->
  <symbol id="icon-quill" viewBox="0 0 24 24">
    <path d="M20 2c-2 2-4 4-5.5 7s-2 6-2.5 8l-1 3c3-1 5-2 8-3.5S23 10 24 8" fill="none" stroke="currentColor" stroke-width="1.5" stroke-linecap="round"/>
    <path d="M12 17l-3 3-5 1 1-5" fill="none" stroke="currentColor" stroke-width="1.5" stroke-linejoin="round"/>
  </symbol>
</svg>
